<svg id="Layer_1" enable-background="new 0 0 512 512" height="512" viewBox="0 0 512 512" width="512" xmlns="http://www.w3.org/2000/svg"><g><path d="m303.8 158.9h-95.5c-27.2 0-49.4 22.1-49.4 49.4v95.5c0 27.2 22.1 49.4 49.4 49.4h95.5c27.2 0 49.4-22.1 49.4-49.4v-95.5c-.1-27.3-22.2-49.4-49.4-49.4zm-47.8 161c-35.2 0-63.9-28.7-63.9-63.9s28.7-63.9 63.9-63.9 63.9 28.7 63.9 63.9-28.7 63.9-63.9 63.9zm67.1-120.7c-6 0-10.8-4.8-10.8-10.8s4.8-10.8 10.8-10.8 10.8 4.8 10.8 10.8-4.8 10.8-10.8 10.8z"/><ellipse cx="256" cy="256" rx="38.8" ry="38.8" transform="matrix(.012 -1 1 .012 -3.028 508.935)"/><path d="m256 31c-124.3 0-225 100.7-225 225s100.7 225 225 225 225-100.7 225-225-100.7-225-225-225zm125 272.8c0 42.6-34.6 77.2-77.2 77.2h-95.5c-42.6 0-77.2-34.6-77.2-77.2v-95.5c0-42.6 34.6-77.2 77.2-77.2h95.5c42.6 0 77.2 34.6 77.2 77.2z"/></g></svg>