<svg clip-rule="evenodd" fill-rule="evenodd" height="512" stroke-linejoin="round" stroke-miterlimit="2" viewBox="0 0 28 28" width="512" xmlns="http://www.w3.org/2000/svg"><g transform="translate(-42)"><g id="Icon"><path d="m62 3h-12v-1c0-.552-.448-1-1-1s-1 .448-1 1v1h-3c-.552 0-1 .448-1 1v21c0 .552.448 1 1 1h22c.552 0 1-.448 1-1v-21c0-.552-.448-1-1-1h-3v-1c0-.552-.448-1-1-1s-1 .448-1 1zm4 8v13h-20v-13zm-2-6v1c0 .552-.448 1-1 1s-1-.448-1-1v-1h-12v1c0 .552-.448 1-1 1s-1-.448-1-1v-1h-2v4h20v-4z"/><g transform="matrix(1 0 0 .833 0 3.333)"><path d="m55 14v6c0 .662.448 1.2 1 1.2s1-.538 1-1.2v-6c0-.662-.448-1.2-1-1.2s-1 .538-1 1.2z"/></g><g transform="matrix(.857 0 0 .833 14 3.333)"><path d="m54.833 14v6c0 .662.523 1.2 1.167 1.2s1.167-.538 1.167-1.2v-6c0-.662-.523-1.2-1.167-1.2s-1.167.538-1.167 1.2z"/></g><g transform="matrix(.857 0 0 .833 2 3.333)"><path d="m54.833 14v6c0 .662.523 1.2 1.167 1.2s1.167-.538 1.167-1.2v-6c0-.662-.523-1.2-1.167-1.2s-1.167.538-1.167 1.2z"/></g></g></g></svg>