<?xml version="1.0" encoding="UTF-8"?>
<svg id="Layer_1" data-name="Layer 1" xmlns="http://www.w3.org/2000/svg" viewBox="0 0 512 512">
  <defs>
    <style>
      .cls-1 {
        fill: #fff;
        stroke-width: 0px;
      }
    </style>
  </defs>
  <path class="cls-1" d="M303.8,158.9h-95.5c-27.2,0-49.4,22.1-49.4,49.4v95.5c0,27.2,22.1,49.4,49.4,49.4h95.5c27.2,0,49.4-22.1,49.4-49.4v-95.5c-.1-27.3-22.2-49.4-49.4-49.4ZM256,319.9c-35.2,0-63.9-28.7-63.9-63.9s28.7-63.9,63.9-63.9,63.9,28.7,63.9,63.9-28.7,63.9-63.9,63.9h0ZM323.1,199.2c-6,0-10.8-4.8-10.8-10.8s4.8-10.8,10.8-10.8,10.8,4.8,10.8,10.8-4.8,10.8-10.8,10.8Z"/>
  <circle class="cls-1" cx="256.04" cy="256.01" r="38.8"/>
  <path class="cls-1" d="M256,31c-124.3,0-225,100.7-225,225s100.7,225,225,225,225-100.7,225-225S380.3,31,256,31ZM381,303.8c0,42.6-34.6,77.2-77.2,77.2h-95.5c-42.6,0-77.2-34.6-77.2-77.2v-95.5c0-42.6,34.6-77.2,77.2-77.2h95.5c42.6,0,77.2,34.6,77.2,77.2v95.5Z"/>
</svg>