<?xml version="1.0" encoding="UTF-8"?>
<svg id="Layer_1" data-name="Layer 1" xmlns="http://www.w3.org/2000/svg" viewBox="0 0 512 512">
  <defs>
    <style>
      .cls-1 {
        fill: #fff;
        stroke-width: 0px;
      }
    </style>
  </defs>
  <g id="Layer_2" data-name="Layer 2">
    <g id="Color">
      <g id="_02.YouTube" data-name=" 02.YouTube">
        <path class="cls-1" d="M224.93,292.13l62.13-36.05-62.13-36.22v72.27Z"/>
        <path class="cls-1" d="M256,32c-123.71,0-224,100.29-224,224s100.29,224,224,224,224-100.29,224-224S379.71,32,256,32ZM373.89,295.64c.02,24.63-19.94,44.61-44.56,44.62h-146.63c-24.63,0-44.59-19.97-44.59-44.59,0,0,0-.02,0-.03v-79.28c-.02-24.63,19.94-44.61,44.56-44.62,0,0,.02,0,.03,0h146.6c24.63,0,44.59,19.97,44.59,44.59v79.31Z"/>
      </g>
    </g>
  </g>
</svg>