<?xml version="1.0" encoding="UTF-8"?>
<svg id="Layer_1" data-name="Layer 1" xmlns="http://www.w3.org/2000/svg" viewBox="0 0 512 512">
  <defs>
    <style>
      .cls-1 {
        fill: #fff;
        stroke-width: 0px;
      }
    </style>
  </defs>
  <g id="Layer_2" data-name="Layer 2">
    <g id="_01.facebook" data-name=" 01.facebook">
      <path id="icon" class="cls-1" d="M256,31c-124.26,0-225,100.74-225,225s100.74,225,225,225,225-100.74,225-225S380.26,31,256,31ZM327.28,229.38l-4.53,39.17c-.38,3.71-3.48,6.54-7.21,6.57h-40.91l-.2,116.21c.03,2.87-2.25,5.22-5.11,5.29h-41.45c-2.82,0-5.12-2.29-5.12-5.11,0-.07,0-.14,0-.21v-116.18h-30.68c-4.05-.04-7.3-3.36-7.26-7.41,0,0,0,0,0,0l-.15-39.2c-.06-4.07,3.19-7.41,7.26-7.47,0,0,0,0,0,0h30.84v-37.84c0-43.93,26.08-67.83,64.33-67.83h31.35c4.07.04,7.33,3.37,7.29,7.44,0,0,0,.02,0,.03v33.01c.06,4.07-3.19,7.41-7.26,7.47,0,0-.02,0-.03,0h-19.23c-20.79,0-24.83,10.23-24.83,24.98v32.75h45.69c4.08.07,7.34,3.43,7.27,7.51,0,.28-.02.55-.06.83h0Z"/>
    </g>
  </g>
</svg>